Coordinates
version=1
nRows=16
nColumns=36
inDegrees=yes

Units are S.I. units (second, meters, Newtons, ...)
If the header above contains a line with 'inDegrees', this indicates whether rotational values are in degrees (yes) or radians (no).

endheader
time	pelvis_tilt	pelvis_list	pelvis_rotation	pelvis_tx	pelvis_ty	pelvis_tz	hip_flexion_r	hip_adduction_r	hip_rotation_r	knee_angle_r	knee_angle_r_beta	ankle_angle_r	subtalar_angle_r	mtp_angle_r	hip_flexion_l	hip_adduction_l	hip_rotation_l	knee_angle_l	knee_angle_l_beta	ankle_angle_l	subtalar_angle_l	mtp_angle_l	lumbar_extension	lumbar_bending	lumbar_rotation	arm_flex_r	arm_add_r	arm_rot_r	elbow_flex_r	pro_sup_r	arm_flex_l	arm_add_l	arm_rot_l	elbow_flex_l	pro_sup_l
      1.90000000	      3.90982694	     -2.84888418	     -2.09166529	      0.53270496	      0.77281652	     -0.08197365	     38.28341632	     -4.92099184	     -0.95642286	      1.87145194	      0.03266300	     -4.06724857	     -7.64590066	     -7.49999987	     29.59461969	      3.96589058	     -6.02551037	     73.24028921	      1.27828419	     31.18631275	     -1.25979809	     -7.49999987	    -30.30041183	     -8.28003374	      1.18366773	     44.38469762	     12.94696810	     66.95255788	    123.99706084	     94.83419332	     38.83595443	      8.82917704	     71.74652267	    126.33098963	     84.88463843
      1.91666670	      3.76162863	     -2.98030562	     -1.94457074	      0.52860289	      0.77184348	     -0.08039833	     38.78029598	     -4.93928723	     -0.65537075	      2.29781962	      0.04010452	     -4.61616304	     -8.68836350	     -7.49999987	     30.07976839	      3.60672749	     -5.93401610	     73.68141828	      1.28598335	     30.63411288	     -0.92057073	     -7.49999987	    -30.42620054	     -8.40068615	      1.35837903	     44.39518524	     12.70745046	     66.42869385	    123.94279327	     97.34728042	     38.98892948	      8.84431608	     71.25663813	    126.31240076	     86.87192171
      1.93333330	      3.81194606	     -3.26168660	     -1.73976474	      0.52817573	      0.77227272	     -0.08070319	     38.89552962	     -5.00182584	     -1.03512948	      2.54761373	      0.04446425	     -5.15581579	     -8.23131360	     -7.49999987	     30.12752652	      3.03667170	     -5.99717007	     74.07853987	      1.29291443	     30.33988236	     -0.23936147	     -7.49999987	    -30.69482583	     -8.31841340	      1.30892979	     44.58666975	     12.47438604	     65.88394968	    123.72278912	     99.06316796	     39.30960170	      8.77314930	     70.27512641	    126.04823490	     88.35002389
      1.95000000	      3.71127575	     -3.50667663	     -1.65589595	      0.52651259	      0.77266187	     -0.07640393	     39.21211926	     -4.75461470	     -1.11876673	      2.82993303	      0.04939165	     -5.52520986	     -8.41935677	     -7.49999987	     30.24979752	      2.33942974	     -5.99932575	     74.09111908	      1.29313397	     29.85049560	      0.27715290	     -7.49999987	    -30.79971090	     -8.43763282	      1.39529687	     44.85623519	     12.28378271	     65.90011741	    123.64890650	     95.23858048	     39.54744232	      8.81455997	     70.06038762	    125.93671958	     85.03909213
      1.96666670	      3.66872708	     -3.61871162	     -1.52207366	      0.52255968	      0.77374426	     -0.07435496	     39.44844665	     -4.57143007	     -1.14473284	      3.15826120	      0.05512206	     -5.90784396	     -9.12835628	     -7.49999987	     30.95300132	      1.90402801	     -5.79306310	     74.43766706	      1.29918238	     29.22395177	      0.64431300	     -7.49999987	    -30.85847148	     -8.82029729	      1.42288898	     44.80544157	     12.15100056	     65.28448085	    123.89957403	     99.18871411	     39.76376970	      8.98658962	     69.40901590	    125.62034675	     88.70017175
      1.98333330	      3.73196838	     -3.89753356	     -1.47288830	      0.52228608	      0.77388858	     -0.07487152	     39.47362866	     -4.39087872	     -1.17051972	      3.55841986	      0.06210614	     -6.16032240	     -9.55902098	     -7.49999987	     30.88926492	      1.61834389	     -5.65368640	     74.41789985	      1.29883737	     29.69828499	      0.97309210	     -7.49999987	    -30.85216421	     -8.84562223	      1.55450625	     45.12446388	     12.00815738	     64.90115190	    123.88400406	     97.03824255	     40.14196769	      9.01003503	     68.84959026	    125.50350787	     86.85984718
      2.00000000	      3.65194552	     -4.23526716	     -1.17812240	      0.52550715	      0.77689111	     -0.07246500	     39.11680501	     -4.14948619	     -1.11262028	      3.41980808	      0.05968691	     -6.15350360	     -9.74256267	     -7.49999987	     30.27726385	      1.04047231	     -5.56794930	     73.72668834	      1.28677346	     28.77801585	      0.00647772	     -7.49999987	    -30.64819831	     -8.87899029	      1.51599712	     44.72018858	     11.78341656	     64.60681054	    124.02907508	     94.99411638	     40.16218425	      8.95370029	     68.46186221	    125.22854036	     84.92422287
      2.01666670	      3.46245190	     -4.20184800	     -1.02627582	      0.52132691	      0.77631788	     -0.07129084	     39.17200820	     -4.22314278	     -0.75011517	      3.17741528	      0.05545636	     -6.46579297	    -10.32268124	     -7.49999987	     30.18872293	      1.05457914	     -5.50623547	     72.81154180	      1.27080114	     30.19052888	      1.17033964	     -7.49999987	    -30.28314451	     -9.31382064	      1.28726610	     44.30692959	     11.76290793	     64.19732225	    124.06100520	     95.40969385	     40.40755527	      8.98243383	     67.99081191	    124.63918411	     85.25336628
      2.03333330	      3.45994738	     -4.35464188	     -0.89276095	      0.51809466	      0.77956923	     -0.06977026	     39.44954156	     -4.13028245	     -0.89275788	      3.63167195	      0.06338463	     -6.52035775	    -10.65826188	     -7.49999987	     30.23754969	      1.07150951	     -5.07596016	     72.37315780	      1.26314989	     29.77056223	      1.54871168	     -7.49999987	    -30.30041574	     -9.39888590	      1.16265957	     44.30622008	     11.84137333	     64.04405263	    124.13344494	     95.50760897	     40.59619600	      9.07401705	     67.81298347	    124.55856880	     85.32667903
      2.05000000	      3.40392987	     -4.43965569	     -0.90549815	      0.51854331	      0.77921653	     -0.06999722	     39.71191492	     -4.01722990	     -0.37988983	      4.20724329	      0.07343025	     -6.74639908	    -11.67685264	     -7.49999987	     30.14392290	      1.29659374	     -4.78972170	     72.18218235	      1.25981674	     28.61101522	     -0.18560032	     -7.49999987	    -30.07228682	     -9.53798955	      1.19874040	     44.30945613	     11.99997713	     63.53512092	    124.11855379	     94.93223743	     40.49663885	      9.04015265	     67.40299654	    124.35764855	     84.78384221
      2.06666670	      3.58445215	     -4.78610299	     -0.89931847	      0.52636997	      0.78285189	     -0.06903448	     39.07266900	     -3.60897437	     -0.39141705	      3.90451261	      0.06814660	     -7.00639874	    -11.59003742	     -7.49999987	     29.28895681	      1.19949518	     -4.33896229	     71.72262766	      1.25179600	     27.91889048	     -1.73265186	     -7.49999987	    -29.70114105	     -9.40819235	      1.17205886	     44.03965253	     11.93055727	     62.86095614	    123.94589448	     95.39615497	     40.01349386	      8.70744963	     66.57069947	    124.00939846	     85.09034281
      2.08333330	      3.78217115	     -4.87243363	     -1.10799950	      0.52345739	      0.78848123	     -0.07227445	     38.75121039	     -3.39991296	     -0.55331329	      3.83907668	      0.06700453	     -6.79787019	    -11.45325341	     -7.49999987	     28.59579293	      1.61706305	     -4.11796643	     70.72216426	      1.23433462	     26.46184427	     -3.69389475	     -7.49999987	    -29.68837318	     -9.31056057	      0.94225205	     44.03932427	     12.12792657	     62.87925680	    124.02638635	     95.88140711	     39.40666628	      8.30252569	     65.89389218	    124.15020263	     85.40954567
      2.10000000	      3.98192254	     -5.23342891	     -1.07775195	      0.52366005	      0.79071353	     -0.07247583	     38.50178121	     -3.04330998	     -0.87487742	      4.03824162	      0.07048061	     -6.56738755	    -11.39790033	     -7.49999987	     28.42024249	      1.97480703	     -3.44279936	     70.32956950	      1.22748255	     24.72942217	     -7.03397166	     -7.49999987	    -29.71743313	     -8.82033336	      0.67047457	     44.01878931	     12.45435312	     62.80645025	    123.92168205	     98.62437488	     38.80377576	      8.08174929	     65.31057215	    124.25262280	     87.43635550
      2.11666670	      4.05252537	     -5.30722327	     -1.33070343	      0.52277552	      0.79338846	     -0.06773344	     38.53757299	     -2.64265315	     -0.95376649	      3.96631931	      0.06922533	     -6.39140984	    -11.50599874	     -7.49999987	     28.58840030	      2.07206241	     -2.91939404	     70.08409719	      1.22319825	     24.75554514	     -7.13267558	     -7.49999987	    -29.69348708	     -9.04698373	      0.79309624	     44.10294887	     12.53799592	     62.76858757	    123.97064297	     98.62297778	     38.73564321	      8.00349449	     65.31393297	    124.33541864	     87.44459484
      2.13333330	      3.95095697	     -5.27209385	     -1.54015440	      0.52321539	      0.79509550	     -0.06724721	     38.84966622	     -2.39182288	     -1.17443601	      4.13065336	      0.07209350	     -5.68029942	    -11.25067904	     -7.49999987	     28.75228155	      2.57876024	     -2.00976852	     69.71630181	      1.21677901	     23.98245368	     -9.21769623	     -7.49999987	    -29.29651597	     -9.16819576	      0.96134078	     43.97706217	     12.80778008	     62.84237656	    124.74244621	     96.62308244	     38.10191711	      7.95855372	     66.49164979	    125.86967113	     85.60599330
      2.15000000	      3.96962020	     -5.38437089	     -1.50236606	      0.52608440	      0.79883675	     -0.06457174	     38.77515287	     -2.02286662	     -0.97656280	      4.10803832	      0.07169879	     -5.67323999	    -12.35989410	     -7.49999987	     28.33358249	      2.52542230	     -1.43570815	     68.96389157	      1.20364697	     24.11254699	    -11.50759921	     -7.49999987	    -28.97786350	     -9.31588285	      1.31981772	     43.74781906	     12.73190868	     62.64467310	    125.32748341	     97.11601529	     38.54403131	      8.33333503	     67.43035443	    125.93989079	     86.20238648
